<?xml version="1.0" encoding="UTF-8"?>
<svg id="Layer_1" data-name="Layer 1" xmlns="http://www.w3.org/2000/svg" viewBox="0 0 291 72">
  <defs>
    <style>
      .cls-1 {
        fill: #039;
      }

      .cls-2 {
        fill: #005bbb;
      }

      .cls-3 {
        fill: #58595b;
      }

      .cls-4 {
        fill: #ffd500;
      }

      .cls-5 {
        fill: #ffed00;
      }
    </style>
  </defs>
  <path class="cls-1" d="M87.65,27.75H28.78v38.94h58.87V27.75Z"/>
  <path class="cls-5" d="M58.75,33.64h2.05l-1.65,1.27.64,2.02-1.64-1.24-1.64,1.24.64-2.02-1.66-1.27h2.05l.62-1.97.6,1.97Z"/>
  <path class="cls-5" d="M58.82,59.61h2.05l-1.65,1.23.64,1.94-1.64-1.2-1.64,1.2.65-1.94-1.67-1.23h2.05l.62-1.89.6,1.89Z"/>
  <path class="cls-5" d="M65.31,57.89h2.06l-1.65,1.22.64,1.94-1.65-1.2-1.64,1.2.65-1.94-1.67-1.22h2.05l.62-1.9.6,1.9Z"/>
  <path class="cls-5" d="M65.31,35.37h2.06l-1.65,1.23.64,1.94-1.65-1.2-1.64,1.2.65-1.94-1.67-1.23h2.05l.62-1.89.6,1.89Z"/>
  <path class="cls-5" d="M70.14,40.14h2.05l-1.65,1.22.64,1.94-1.64-1.2-1.64,1.2.65-1.94-1.67-1.22h2.05l.62-1.9.61,1.9Z"/>
  <path class="cls-5" d="M70.14,53.18h2.05l-1.65,1.23.64,1.94-1.64-1.2-1.64,1.2.65-1.94-1.67-1.23h2.05l.62-1.89.61,1.89Z"/>
  <path class="cls-5" d="M71.95,46.56h2.06l-1.65,1.23.64,1.94-1.65-1.2-1.64,1.2.65-1.94-1.67-1.23h2.05l.62-1.89.6,1.89Z"/>
  <path class="cls-5" d="M52.13,35.39h2.05l-1.65,1.22.64,1.94-1.64-1.2-1.64,1.2.65-1.94-1.66-1.22h2.04l.62-1.9.61,1.9Z"/>
  <path class="cls-5" d="M47.43,40.16h2.06l-1.65,1.22.64,1.94-1.64-1.2-1.64,1.2.65-1.94-1.67-1.22h2.05l.62-1.9.6,1.9Z"/>
  <path class="cls-5" d="M45.69,46.58h2.05l-1.65,1.22.64,1.94-1.64-1.19-1.64,1.19.65-1.94-1.66-1.22h2.04l.62-1.9.6,1.9Z"/>
  <path class="cls-5" d="M47.43,53.2h2.06l-1.65,1.23.64,1.94-1.64-1.2-1.64,1.2.65-1.94-1.67-1.23h2.05l.62-1.89.6,1.89Z"/>
  <path class="cls-5" d="M52.19,57.91h2.05l-1.65,1.22.64,1.94-1.64-1.2-1.64,1.2.65-1.94-1.66-1.22h2.04l.62-1.9.61,1.9Z"/>
  <path class="cls-2" d="M96.59,0s12.09,19.05,14.31,22.54c2.21,3.49,4.74,6.26,13.69,8.13,8.95,1.87,12.84,2.76,12.84,2.76v.68s-5.69-1.2-13-2.81c-7.32-1.62-10.31-2.16-13.64-6.75-2.78-3.82-14.19-20.91-14.19-20.91V0h0Z"/>
  <path class="cls-2" d="M96.59,21.76s11.01,11.41,14.19,14.68c3.38,3.47,7.7,4.76,13.7,5.82,5.72,1.01,12.94,2.18,12.94,2.18v.64s-6.78-1.1-12.94-2.14c-6.04-1.02-10.27-1.59-13.74-4.75-3.1-2.82-14.16-13.08-14.16-13.08v-3.36h0Z"/>
  <path class="cls-2" d="M96.59,26.9s10.47,9.61,14.19,12.9c3.43,3.02,6.2,3.96,13.74,5.28,7.53,1.32,12.91,2.14,12.91,2.14v.68s-6.82-1.11-12.94-2.07c-6.13-.96-10.03-1.35-13.7-4.28-4.23-3.39-14.19-11.5-14.19-11.5v-3.14h0Z"/>
  <path class="cls-2" d="M96.59,32.38s11.96,9.38,14.19,11.02c2.24,1.64,5.19,3.56,13.77,4.78,8.51,1.22,12.87,1.82,12.87,1.82v.71s-7.71-1.11-12.87-1.75c-5.16-.64-9.11-.92-13.74-3.96-4.5-2.97-14.23-9.74-14.23-9.74v-2.89Z"/>
  <path class="cls-4" d="M96.59,37.64s11.99,7.9,14.27,9.15c2.27,1.25,4.94,3.29,13.7,4.39,8.76,1.11,12.87,1.6,12.87,1.6v.68s-7.24-.78-12.91-1.39c-5.66-.61-9.52-1.43-13.74-3.71-4.22-2.28-14.19-8.05-14.19-8.05v-2.67Z"/>
  <path class="cls-4" d="M96.59,42.91s10.6,5.71,14.19,7.48c4,1.99,7.46,2.94,13.74,3.68,6.16.72,12.91,1.43,12.91,1.43v.64s-6.24-.66-12.91-1.28c-6.61-.62-8.96-.91-13.74-3-4.27-1.87-14.19-6.45-14.19-6.45v-2.5h0Z"/>
  <path class="cls-4" d="M96.59,48.25s8.38,3.55,14.27,5.86c5.79,2.27,10.22,2.47,13.74,2.86,1.55.17,12.83,1.32,12.83,1.32v.64s-6.74-.53-12.87-1.07c-6.13-.53-8.77-.76-13.74-2.39-5.02-1.65-14.23-4.82-14.23-4.82v-2.39h0Z"/>
  <path class="cls-4" d="M96.59,53.7s8.46,2.59,14.23,4.09c5.77,1.5,11.07,2.11,13.74,2.28,2.67.18,12.88,1,12.88,1v.61s-5.81-.39-12.91-.89c-5.74-.4-10.36-.83-13.74-1.57-3.74-.82-14.19-3.27-14.19-3.27v-2.25Z"/>
  <path class="cls-4" d="M96.59,59.05s6.92,1.18,14.23,2.38c5.48.9,12.91,1.46,13.7,1.5.79.04,12.91.86,12.91.86v.64s-7.75-.4-12.91-.68c-5.37-.3-10.71-.62-13.74-.93-6.79-.7-14.19-1.63-14.19-1.63v-2.14Z"/>
  <path class="cls-4" d="M96.59,64.6s10.91.41,14.23.48c3.32.07,26.61,1,26.61,1v.63h-40.83v-2.1Z"/>
  <path class="cls-2" d="M124.52,33.62c-9.88-2.1-12.11-5.68-13.77-7.89-1.66-2.22-14.16-20.28-14.16-20.28v3.32c.49.64,11.19,15.24,14.19,19.06,3.39,4.31,8.69,5.28,13.74,6.35,5.04,1.07,12.91,2.56,12.91,2.56v-.57s-10.36-2.02-12.91-2.56Z"/>
  <path class="cls-2" d="M124.52,36.48c-8.11-1.57-11.39-4.11-13.77-7.17-2.38-3.07-14.16-18.78-14.16-18.78v3.86c.49.58,11.27,13.58,14.16,16.85,3.37,3.82,8.07,4.82,13.77,5.85,5.7,1.03,12.91,2.39,12.91,2.39v-.57s-8.23-1.52-12.91-2.42h0Z"/>
  <path class="cls-2" d="M124.52,39.44c-8.43-1.62-10.17-2.95-13.74-6.82-2.25-2.43-13.71-15.81-14.19-16.38v3.57s10.71,11.3,14.16,14.64c4.52,4.38,8.76,4.71,13.77,5.6,5.01.89,12.91,2.32,12.91,2.32v-.61s-9.53-1.67-12.91-2.32h0Z"/>
  <path class="cls-2" d="M.78,27.99s27.92-2.94,35.74-4.03c12.36-1.71,22.48-3.54,31.84-17.72,0,0,.01-.8,0-1.17-5.73,8.63-13.64,14.51-24.53,16.22C33.2,22.96.78,25.4.78,25.4v2.59h0Z"/>
  <path class="cls-2" d="M.78,24.47s25.88-3.2,34.4-4.39c13.49-1.86,22.97-3.54,33.18-19.02,0,0,0-.67,0-1.06-6.25,9.41-13.98,15.49-25.86,17.35C30.9,19.18.78,21.84.78,21.84v2.63h0Z"/>
  <path class="cls-4" d="M27.2,64.62H.79v2.07h26.4v-2.07Z"/>
  <path class="cls-2" d="M68.36,22.74s.02-1.22.01-1.48c-1.24,1.87-2.87,3.57-4.76,5.06h1.85c1.04-1.06,2.01-2.25,2.9-3.58h0Z"/>
  <path class="cls-2" d="M68.36,17.24s.01-1.08,0-1.38c-2.99,4.5-7.45,8.1-12.6,10.48h3.04c3.51-2.03,6.78-4.91,9.55-9.11h0Z"/>
  <path class="cls-2" d="M68.36,11.74s.01-.94,0-1.27c-5.21,7.84-13.31,13.21-23.21,14.76-2.34.37-6.16.77-10.6,1.19l12.09-.04c7.98-1.76,15.45-5.16,21.71-14.64h.01Z"/>
  <path class="cls-4" d="M27.2,61.14c-13.47.07-26.41.13-26.41.13v2.16s13.55-.1,26.41-.2v-2.08Z"/>
  <path class="cls-4" d="M27.2,57.44c-13.38.15-26.41.26-26.41.26v2.2s13.69-.18,26.41-.38v-2.08Z"/>
  <path class="cls-4" d="M27.2,53.73c-13.28.23-26.41.4-26.41.4v2.25s13.83-.27,26.41-.57v-2.08Z"/>
  <path class="cls-4" d="M27.2,50c-13.18.32-26.41.56-26.41.56v2.29s13.99-.38,26.41-.77v-2.08h0Z"/>
  <path class="cls-4" d="M27.21,46.26c-13.09.41-26.42.74-26.42.74v2.33s14.16-.49,26.42-.99v-2.08h0Z"/>
  <path class="cls-2" d="M27.2,42.51c-12.98.52-26.41.93-26.41.93v2.37s14.34-.62,26.41-1.24v-2.07h0Z"/>
  <path class="cls-2" d="M27.21,38.72c-12.89.63-26.42,1.14-26.42,1.14v2.42s14.53-.77,26.42-1.51v-2.05Z"/>
  <path class="cls-2" d="M27.21,34.92c-12.79.75-26.42,1.37-26.42,1.37v2.46s14.72-.94,26.42-1.8v-2.03Z"/>
  <path class="cls-2" d="M27.21,31.1c-12.7.89-26.42,1.63-26.42,1.63v2.51s14.92-1.13,26.42-2.13v-2h0Z"/>
  <path class="cls-2" d="M27.21,27.25c-12.62,1.03-26.43,1.92-26.43,1.92v2.55s15.12-1.36,26.43-2.5v-1.97Z"/>
  <path class="cls-3" d="M146.54,33.68c0-.25.12-.39.39-.39h7.16c.24,0,.37.14.37.37v1.21c0,.24-.1.35-.39.35h-5.31v3.35h4.7c.25,0,.39.12.39.35v1.21c0,.24-.1.35-.39.35h-4.7v3.83h5.45c.24,0,.35.12.35.37v1.19c0,.25-.1.35-.37.35h-7.25c-.27,0-.39-.12-.39-.35v-12.18h0Z"/>
  <path class="cls-3" d="M164.35,46.2h-1.38c-.29,0-.37-.14-.37-.37v-.6l-.04-.02c-.76.53-2.08,1.17-3.27,1.17-2.63,0-2.88-1.56-2.88-3.6v-5.72c0-.24.1-.39.37-.39h1.42c.25,0,.35.14.35.39v5.47c0,1.17.24,1.9,1.42,1.9.84,0,2.12-.62,2.63-.88v-6.5c0-.24.08-.39.37-.39h1.38c.27,0,.37.14.37.39v8.78c0,.25-.1.37-.37.37h0Z"/>
  <path class="cls-3" d="M169.3,45.83c0,.24-.1.37-.37.37h-1.4c-.27,0-.37-.12-.37-.37v-8.78c0-.25.1-.39.37-.39h1.38c.29,0,.39.15.39.39v.85l.04.04c.58-.54,1.97-1.21,2.88-1.38.25-.06.43,0,.47.33l.14,1.31c.02.27.04.39-.37.47-1.09.22-2.47.6-3.15.9v6.26Z"/>
  <path class="cls-3" d="M177.86,46.36c-3.91,0-4.16-2.86-4.16-5.08,0-1.83.41-4.8,4.16-4.8s4.3,2.51,4.3,4.8-.27,5.08-4.3,5.08ZM177.88,38.35c-1.65,0-2.02,1.05-2.02,3.07s.37,3.07,2,3.07c1.77,0,2.12-.99,2.12-3.07s-.33-3.07-2.1-3.07Z"/>
  <path class="cls-3" d="M188.6,46.38c-.64,0-1.54-.12-2.43-.43l-.02.02v3.43c0,.22-.06.39-.37.39h-1.38c-.31,0-.37-.14-.37-.39v-12.33c0-.25.1-.39.37-.39h1.38c.27,0,.35.15.35.39v.58l.06.04c.7-.49,1.95-1.17,3.07-1.17,2.55,0,3.21,1.93,3.21,4.86,0,3.17-.8,5-3.87,5h0ZM188.76,38.46c-.8,0-2.02.56-2.61.88v4.86c.88.25,1.58.33,2.24.33,1.4,0,1.89-.72,1.89-3.17s-.49-2.9-1.52-2.9h0Z"/>
  <path class="cls-3" d="M196.21,42.03c.06,1.97.76,2.51,2.35,2.51.7,0,1.79-.14,2.53-.22.35-.04.47-.04.53.33l.12.64c.06.29.02.45-.33.6-.76.29-2.18.49-3.13.49-3.72,0-4.26-2.37-4.26-4.9,0-1.89.35-5,4.14-5,3.48,0,4.11,2.26,4.16,4.36.02.7-.17,1.19-.95,1.19h-5.16ZM196.23,40.57h3.85c0-1.19-.31-2.33-1.93-2.33-1.44,0-1.83.88-1.93,2.33Z"/>
  <path class="cls-3" d="M210.1,45.1c-.97.74-2.28,1.26-3.58,1.26-2.06,0-2.67-1.13-2.67-2.76-.02-2.28,1.21-3.25,3.65-3.25h2.49v-.51c0-1.17-.43-1.58-2.02-1.58-.64,0-1.87.1-2.65.17-.39.06-.49.04-.54-.24l-.17-.72c-.04-.25.02-.41.45-.58.83-.29,2.38-.43,3.29-.43,3.36,0,3.77,1.38,3.77,3.56v3.75c0,.8.1.82.7.9.29.02.37.08.37.29v.82c0,.22-.14.35-.47.41-.31.06-.62.1-.92.1-.92,0-1.48-.27-1.67-1.19l-.04-.02h.01ZM209.98,41.87h-2.38c-.97,0-1.6.35-1.6,1.63,0,.86.29,1.13,1.21,1.13.83,0,2.02-.49,2.76-.92v-1.85h0Z"/>
  <path class="cls-3" d="M222.45,46.2h-1.4c-.25,0-.37-.12-.37-.37l.02-5.47c0-1.15-.27-1.9-1.4-1.9-.78,0-2.14.62-2.67.88v6.5c0,.24-.1.37-.37.37h-1.38c-.27,0-.37-.12-.37-.37v-8.78c0-.25.1-.39.37-.39h1.38c.27,0,.37.14.37.39v.58s.04.02.06.02c.72-.51,2.08-1.17,3.27-1.17,2.63,0,2.86,1.73,2.86,3.7v5.64c0,.24-.08.37-.37.37h.01Z"/>
  <path class="cls-3" d="M151.75,53.63c.95,0,2.53.14,3.56.56.31.14.43.29.37.6l-.17.8c-.06.24-.15.33-.51.29-.95-.12-2.12-.25-3.13-.25-2.65,0-3.04,2.14-3.04,4.67s.49,4.55,3.04,4.55c1.13,0,2.08-.12,3.13-.25.37-.04.45.06.53.31l.15.74c.08.31-.02.49-.33.62-.95.41-2.65.58-3.6.58-4.34,0-5.25-3.21-5.25-6.52s.82-6.71,5.25-6.71h0Z"/>
  <path class="cls-3" d="M161.25,66.84c-3.91,0-4.16-2.86-4.16-5.08,0-1.83.41-4.8,4.16-4.8s4.3,2.51,4.3,4.8-.27,5.08-4.3,5.08ZM161.27,58.83c-1.65,0-2.02,1.05-2.02,3.07s.37,3.07,2,3.07c1.77,0,2.12-.99,2.12-3.07s-.33-3.07-2.1-3.07Z"/>
  <path class="cls-3" d="M181.04,66.68h-1.4c-.27,0-.37-.12-.37-.37v-5.52c0-1.44-.35-1.85-1.32-1.85-.72,0-1.89.56-2.49.88,0,.19.02.54.02.99v5.5c0,.24-.08.37-.37.37h-1.42c-.25,0-.33-.12-.33-.37v-5.62c0-1.19-.31-1.75-1.28-1.75-.68,0-1.77.49-2.51.88v6.5c0,.24-.1.37-.37.37h-1.4c-.25,0-.35-.12-.35-.37v-8.78c0-.25.1-.39.35-.39h1.38c.29,0,.39.15.39.39v.56l.02.02c.76-.53,1.83-1.11,2.9-1.15,1.13,0,2.06.24,2.67,1.36.97-.72,2.18-1.36,3.43-1.36,2.57,0,2.82,1.67,2.82,3.62v5.72c0,.24-.08.37-.35.37h-.01Z"/>
  <path class="cls-3" d="M197.07,66.68h-1.4c-.27,0-.37-.12-.37-.37v-5.52c0-1.44-.35-1.85-1.32-1.85-.72,0-1.89.56-2.49.88,0,.19.02.54.02.99v5.5c0,.24-.08.37-.37.37h-1.42c-.25,0-.33-.12-.33-.37v-5.62c0-1.19-.31-1.75-1.28-1.75-.68,0-1.77.49-2.51.88v6.5c0,.24-.1.37-.37.37h-1.4c-.25,0-.35-.12-.35-.37v-8.78c0-.25.1-.39.35-.39h1.38c.29,0,.39.15.39.39v.56l.02.02c.76-.53,1.83-1.11,2.9-1.15,1.13,0,2.06.24,2.67,1.36.97-.72,2.18-1.36,3.43-1.36,2.57,0,2.82,1.67,2.82,3.62v5.72c0,.24-.08.37-.35.37h0Z"/>
  <path class="cls-3" d="M200.88,55.75c-1.01,0-1.15-.56-1.15-1.13,0-.62.21-1.11,1.15-1.11s1.15.45,1.15,1.11c0,.6-.17,1.13-1.15,1.13ZM201.92,66.32c0,.22-.08.37-.35.37h-1.38c-.27,0-.39-.12-.39-.37v-8.79c0-.27.12-.37.39-.37h1.38c.27,0,.35.15.35.37v8.79Z"/>
  <path class="cls-3" d="M207.52,66.84c-.97,0-2.28-.14-3.02-.43-.39-.15-.47-.33-.41-.64l.14-.64c.06-.31.19-.33.51-.29.86.14,2.1.24,2.76.24,1.24,0,1.75-.33,1.75-1.11,0-.9-.33-1.09-1.56-1.26-1.9-.27-3.58-.68-3.58-2.8,0-1.93,1.48-2.94,3.66-2.94.8,0,2.14.12,2.96.43.33.14.47.29.41.58l-.15.7c-.06.27-.17.31-.53.27-.84-.1-1.93-.22-2.65-.22-1.24,0-1.54.35-1.54,1.09s.47.86,1.65,1.05c1.85.27,3.52.64,3.52,2.96s-1.93,3.02-3.93,3.02h0Z"/>
  <path class="cls-3" d="M216.45,66.84c-.97,0-2.28-.14-3.01-.43-.39-.15-.47-.33-.41-.64l.14-.64c.06-.31.2-.33.51-.29.85.14,2.1.24,2.76.24,1.24,0,1.75-.33,1.75-1.11,0-.9-.33-1.09-1.56-1.26-1.9-.27-3.58-.68-3.58-2.8,0-1.93,1.48-2.94,3.65-2.94.8,0,2.14.12,2.96.43.33.14.47.29.41.58l-.15.7c-.06.27-.17.31-.53.27-.84-.1-1.93-.22-2.65-.22-1.24,0-1.54.35-1.54,1.09s.47.86,1.65,1.05c1.85.27,3.52.64,3.52,2.96s-1.93,3.02-3.93,3.02h-.01Z"/>
  <path class="cls-3" d="M223.55,55.75c-1.01,0-1.15-.56-1.15-1.13,0-.62.21-1.11,1.15-1.11s1.15.45,1.15,1.11c0,.6-.17,1.13-1.15,1.13ZM224.58,66.32c0,.22-.08.37-.35.37h-1.38c-.27,0-.39-.12-.39-.37v-8.79c0-.27.12-.37.39-.37h1.38c.27,0,.35.15.35.37v8.79Z"/>
  <path class="cls-3" d="M230.96,66.84c-3.91,0-4.16-2.86-4.16-5.08,0-1.83.41-4.8,4.16-4.8s4.3,2.51,4.3,4.8-.27,5.08-4.3,5.08ZM230.98,58.83c-1.65,0-2.02,1.05-2.02,3.07s.37,3.07,2,3.07c1.77,0,2.12-.99,2.12-3.07s-.33-3.07-2.1-3.07Z"/>
  <path class="cls-3" d="M245.03,66.68h-1.4c-.25,0-.37-.12-.37-.37l.02-5.47c0-1.15-.27-1.9-1.4-1.9-.78,0-2.14.62-2.67.88v6.5c0,.24-.1.37-.37.37h-1.38c-.27,0-.37-.12-.37-.37v-8.78c0-.25.1-.39.37-.39h1.38c.27,0,.37.14.37.39v.58s.04.02.06.02c.72-.51,2.08-1.17,3.27-1.17,2.63,0,2.86,1.73,2.86,3.7v5.64c0,.24-.08.37-.37.37h.01Z"/>
  <path class="cls-1" d="M257.62,66.68V27.59h-3.33v39.1h3.33Z"/>
</svg>