<?xml version="1.0" encoding="UTF-8"?>
<!-- Generator: visioncortex VTracer 0.6.4 -->
<svg version="1.1" xmlns="http://www.w3.org/2000/svg" width="1024" height="1024">
<path d="M0 0 C337.92 0 675.84 0 1024 0 C1024 337.92 1024 675.84 1024 1024 C686.08 1024 348.16 1024 0 1024 C0 686.08 0 348.16 0 0 Z " fill="#04060B" transform="translate(0,0)"/>
<path d="M0 0 C18.67533091 15.96519054 32.12068838 33.2785777 42.2578125 55.703125 C44.23627681 58.98846482 45.36950974 60.18697257 48.9609375 61.53125 C54.75594332 61.29178695 59.9614885 59.78426198 65.4609375 58.03125 C94.14201256 48.88883081 125.31731444 54.41099275 151.5859375 67.78125 C158.60553619 71.68390512 164.77024768 76.45044481 170.9609375 81.53125 C171.73566406 82.16289062 172.51039063 82.79453125 173.30859375 83.4453125 C198.64620711 104.82850065 211.83070561 137.954256 214.7800293 170.31201172 C217.38369393 202.25170333 205.45034652 234.64352084 185.1640625 259.04296875 C165.45550015 281.30246204 140.29642028 296.63951835 110.9609375 302.59375 C107.43593829 303.35556302 104.7652344 304.13934971 101.9609375 306.53125 C99.19525248 311.83930761 98.52762871 316.01318176 98.57617188 321.94165039 C98.5707991 322.75233475 98.56542633 323.5630191 98.55989075 324.39826965 C98.55015601 326.14696441 98.5471555 327.89570723 98.55024719 329.64442635 C98.55474623 332.41507458 98.54066737 335.18509122 98.52185059 337.95567322 C98.478946 344.83310838 98.46782391 351.71052823 98.45562744 358.58807373 C98.44408712 364.40927519 98.42049702 370.23018714 98.38093567 376.05126762 C98.36739038 378.77560059 98.37153097 381.49953893 98.37634277 384.22389221 C98.36700038 385.89934794 98.35683111 387.57479932 98.34570312 389.25024414 C98.35492546 390.37958374 98.35492546 390.37958374 98.36433411 391.53173828 C98.30938794 396.25370229 97.64842047 399.61308932 94.9609375 403.53125 C91.2207882 405.44992316 88.11250509 405.78291915 83.94323063 405.78851891 C82.12074066 405.79819224 82.12074066 405.79819224 80.26143271 405.808061 C78.91648064 405.80511885 77.57152898 405.80198343 76.22657776 405.79867554 C74.79523047 405.80241229 73.36388523 405.80701391 71.93254322 405.81240618 C67.99905414 405.82464826 64.06565003 405.82437431 60.13214624 405.82201743 C55.89007591 405.82160958 51.64803295 405.83264532 47.40597534 405.84213257 C39.09539371 405.85874949 30.78484044 405.8642424 22.47424359 405.86535732 C15.7205003 405.86630734 8.96676637 405.87041533 2.21302605 405.87675858 C-16.92916634 405.89437184 -36.0713363 405.90359716 -55.21353685 405.90209763 C-56.76166301 405.90197776 -56.76166301 405.90197776 -58.34106445 405.90185547 C-59.37440641 405.90177371 -60.40774836 405.90169195 -61.47240371 405.90160771 C-78.22607437 405.90079448 -94.97965518 405.91994105 -111.73329984 405.9481322 C-128.93002224 405.97684098 -146.12670079 405.99067365 -163.32344776 405.98894465 C-172.98051151 405.98828012 -182.63748105 405.9938002 -192.29452324 406.01530075 C-200.5152366 406.03348603 -208.73581304 406.03788167 -216.95653778 406.0242819 C-221.15173873 406.01773917 -225.34667679 406.01768192 -229.54185295 406.0349884 C-233.38175641 406.05066659 -237.22118735 406.04790985 -241.06107891 406.03042014 C-242.4506657 406.02733862 -243.8402873 406.03102591 -245.22983306 406.04214029 C-258.20664969 406.13906764 -258.20664969 406.13906764 -263.0390625 401.53125 C-264.61879655 398.3717819 -264.19218498 394.9747104 -264.19677734 391.50488281 C-264.20185806 390.67542145 -264.20693878 389.84596008 -264.21217346 388.99136353 C-264.22288887 387.18636386 -264.23150444 385.3813508 -264.23829269 383.57633209 C-264.25006732 380.71803314 -264.26951751 377.85988626 -264.29141235 375.00164795 C-264.35306923 366.87354607 -264.40704174 358.74545847 -264.44042969 350.6171875 C-264.46139233 345.64807723 -264.49671179 340.67924199 -264.54118729 335.710289 C-264.55533848 333.81734203 -264.56406774 331.92434638 -264.56724167 330.03134918 C-264.57215843 327.37900602 -264.59533703 324.7273903 -264.62255859 322.07519531 C-264.61955246 321.29574554 -264.61654633 320.51629578 -264.6134491 319.71322632 C-264.68690671 314.88596425 -265.664274 311.70575245 -268.0390625 307.53125 C-268.0390625 306.87125 -268.0390625 306.21125 -268.0390625 305.53125 C-272.48484251 304.15044303 -276.92540084 302.80711114 -281.4453125 301.6875 C-304.60419819 295.94726338 -324.15783941 285.244408 -342.0390625 269.53125 C-342.82925781 268.84417969 -343.61945313 268.15710938 -344.43359375 267.44921875 C-366.45414873 246.86381195 -380.15712832 214.46527768 -381.27734375 184.5546875 C-381.89529728 153.20607171 -372.83364178 124.63473023 -354.0390625 99.53125 C-353.01619141 98.15453125 -353.01619141 98.15453125 -351.97265625 96.75 C-347.79112555 91.31646501 -343.33816845 86.85646621 -338.0390625 82.53125 C-337.25144531 81.83386719 -336.46382813 81.13648438 -335.65234375 80.41796875 C-315.59986858 63.06313598 -289.91400053 54.30828115 -263.6015625 54.28125 C-262.92577148 54.28024292 -262.24998047 54.27923584 -261.55371094 54.27819824 C-247.55258848 54.29234583 -235.58747683 56.47962815 -222.2578125 60.859375 C-218.41021456 61.66251438 -215.83161061 61.57685906 -212.0390625 60.53125 C-207.69961133 56.5607725 -205.45325034 50.67120717 -202.8515625 45.46875 C-186.36412241 13.37737051 -158.05930149 -10.28419238 -123.79931641 -21.47045898 C-82.21066079 -34.43528962 -34.45363876 -27.40849694 0 0 Z " fill="#B4EC9A" transform="translate(595.0390625,266.46875)"/>
<path d="M0 0 C1.22406915 -0.00843994 2.4481383 -0.01687988 3.70930046 -0.02557558 C5.06967534 -0.01978017 6.43004902 -0.01369913 7.79042149 -0.00736332 C9.23399459 -0.01153488 10.67756442 -0.01701142 12.12112814 -0.02368313 C16.09305357 -0.0381799 20.06477224 -0.0338799 24.03670919 -0.02651632 C28.31832145 -0.02179737 32.59988815 -0.03428318 36.88148594 -0.04453373 C45.27142839 -0.0617521 53.66129605 -0.06255546 62.05125158 -0.05732083 C68.86891356 -0.05328356 75.68655338 -0.0547174 82.50421429 -0.06006908 C83.95830058 -0.06119172 83.95830058 -0.06119172 85.44176235 -0.06233703 C87.41091756 -0.06386847 89.38007277 -0.06540681 91.34922797 -0.066952 C109.82615412 -0.08068801 128.30303795 -0.0752316 146.77996314 -0.06376678 C163.69280631 -0.05383308 180.6055401 -0.0667755 197.51836639 -0.09070098 C214.87438903 -0.1150689 232.23036068 -0.12470554 249.58640009 -0.11804825 C259.33454351 -0.11455091 269.08260278 -0.11682196 278.8307333 -0.13429928 C287.12909375 -0.14899244 295.42731081 -0.14969461 303.72566836 -0.13222837 C307.96123776 -0.12369212 312.19655068 -0.12163245 316.43210697 -0.13687992 C320.30778002 -0.15065937 324.18297524 -0.14605165 328.05862016 -0.12664068 C329.46234735 -0.1228595 330.86611219 -0.12586327 332.26980602 -0.13625234 C334.17501641 -0.14935303 336.08035547 -0.13549743 337.98554993 -0.12025452 C339.04469996 -0.12014718 340.10384999 -0.12003984 341.19509548 -0.11992925 C344.80061743 0.51058457 346.44543594 1.86041495 349.05569553 4.38031673 C352.75990334 10.56193195 352.50760578 16.64286171 352.48928928 23.70844173 C352.49453114 24.89323116 352.49977299 26.07802059 352.50517368 27.29871273 C352.51158198 29.80002721 352.5102724 32.30137188 352.50174046 34.80268002 C352.49325461 38.60385348 352.5219728 42.40351115 352.55374241 46.20453548 C352.55535535 48.64333712 352.55477512 51.08214139 352.55178928 53.52094173 C352.56302326 54.64526608 352.57425724 55.76959042 352.58583164 56.92798519 C352.50757951 65.91786573 351.18873257 74.80385543 344.55569553 81.38031673 C335.89330132 87.84234763 324.88585891 87.8197299 314.50026035 87.76799679 C312.53029208 87.77607509 312.53029208 87.77607509 310.52052647 87.7843166 C306.90889754 87.79866484 303.29749886 87.79456019 299.68585789 87.78714979 C295.77782514 87.78239399 291.86984049 87.79494899 287.96182346 87.8051672 C280.31960324 87.82231211 272.67746538 87.82320438 265.03523093 87.81795429 C258.82183488 87.81390419 252.60846307 87.8153661 246.39506817 87.82070255 C245.06593448 87.82182519 245.06593448 87.82182519 243.7099496 87.8229705 C241.90959405 87.82450205 240.1092385 87.8260404 238.30888296 87.82758547 C221.44888241 87.8412943 204.58892835 87.83588365 187.72892887 87.82440025 C172.31764449 87.81446415 156.9064801 87.82741794 141.49521422 87.85133445 C125.65086485 87.87573693 109.80657134 87.88533083 93.96220356 87.87868172 C85.0747116 87.87519275 76.18731196 87.87740055 67.29983425 87.89493275 C59.73635247 87.90966886 52.17302807 87.91027149 44.60954934 87.89286184 C40.75392229 87.88436206 36.89857622 87.88217715 33.04296398 87.89751339 C28.85646498 87.91395923 24.67064107 87.89918536 20.48414707 87.88152218 C19.27537936 87.89112719 18.06661165 87.90073219 16.82121462 87.91062826 C7.50294576 87.82988797 -1.17598725 86.57293941 -7.94430447 79.69281673 C-14.25466444 72.32547146 -14.40183665 62.97821713 -14.37789822 53.75141048 C-14.38314007 52.56233593 -14.38838192 51.37326138 -14.39378262 50.14815426 C-14.40017789 47.64620396 -14.39889835 45.14422349 -14.39034939 42.64227962 C-14.38182252 38.82589753 -14.41066605 35.01100511 -14.44235134 31.19476986 C-14.44396321 28.75531718 -14.44338611 26.31586187 -14.44039822 23.87641048 C-14.45163219 22.7428764 -14.46286617 21.60934231 -14.47444057 20.4414587 C-14.41847238 14.04879704 -13.98502218 8.57178517 -9.94430447 3.38031673 C-6.66093915 0.3471424 -4.41828304 0.00429371 0 0 Z " fill="#A7EBA0" transform="translate(342.94430446624756,700.619683265686)"/>
<path d="M0 0 C2.95808518 2.95808518 2.30809474 6.15443206 2.31884766 10.12158203 C2.32889328 10.96068115 2.3389389 11.79978027 2.34928894 12.66430664 C2.38024786 15.44546811 2.3971912 18.22653278 2.4140625 21.0078125 C2.43276394 22.93310385 2.45233657 24.85838691 2.4727478 26.78366089 C2.52418323 31.85694506 2.56374774 36.93025585 2.60089111 42.00366211 C2.6408594 47.17829023 2.69198438 52.35280659 2.7421875 57.52734375 C2.83908182 67.68481745 2.92344321 77.84235409 3 88 C3.66 88 4.32 88 5 88 C5.2475 88.639375 5.495 89.27875 5.75 89.9375 C6.77953859 92.12279867 6.77953859 92.12279867 8.71343857 92.62104118 C11.45512211 93.07542878 14.054382 93.12540611 16.83498287 93.12584114 C18.03466825 93.12844889 19.23435364 93.13105664 20.47039312 93.13374341 C22.44969307 93.13039732 22.44969307 93.13039732 24.46897888 93.12698364 C25.88367457 93.12813555 27.29836997 93.12972355 28.71306473 93.13171089 C32.60512218 93.13589467 36.49715518 93.13381778 40.38921273 93.13072467 C44.58491631 93.12846692 48.78061562 93.13195207 52.97631836 93.13470459 C61.19779888 93.13915735 69.41927029 93.13818797 77.64075118 93.13529195 C84.32158311 93.13303583 91.00241249 93.1327263 97.68324471 93.13381577 C98.63320804 93.133969 99.58317137 93.13412223 100.56192147 93.13428011 C102.49161768 93.13459983 104.42131388 93.13492404 106.35101009 93.1352527 C124.45737791 93.13810608 142.56374068 93.13482276 160.67010767 93.12945233 C176.21244736 93.12498514 191.75477958 93.1257598 207.29711914 93.13037109 C225.33605909 93.13572059 243.37499461 93.13783065 261.41393524 93.13475883 C263.33693667 93.13444027 265.2599381 93.1341259 267.18293953 93.13381577 C268.12914584 93.13366149 269.07535215 93.13350721 270.05023138 93.13334826 C276.72395841 93.13248418 283.39768263 93.13394367 290.07140923 93.13629532 C298.2032045 93.1390977 306.33499012 93.13834579 314.46678429 93.13301457 C318.61720804 93.1303834 322.76761568 93.12936266 326.91803932 93.13266373 C330.71583726 93.13563867 334.51360412 93.13401377 338.31139923 93.12868617 C340.33955401 93.12703611 342.36771093 93.13030893 344.39586347 93.13374341 C345.5981566 93.13113566 346.80044973 93.12852791 348.03917599 93.12584114 C349.07706168 93.12567879 350.11494738 93.12551644 351.18428415 93.12534916 C353.89312895 93.00475765 356.36226768 92.61017703 359 92 C358.67 92.66 358.34 93.32 358 94 C354.82058277 95.05980574 352.56903438 95.12852906 349.22838879 95.13422108 C348.01737757 95.13867892 346.80636635 95.14313676 345.55865782 95.14772969 C344.20782164 95.1476404 342.85698545 95.14745054 341.50614929 95.14717102 C340.07652954 95.1504697 338.64691071 95.15419527 337.21729308 95.1583125 C333.27930729 95.16833995 329.34133674 95.17205048 325.40333998 95.17470181 C321.15987793 95.17860258 316.91642797 95.18818098 312.67297363 95.19691467 C302.42123652 95.2166841 292.1694984 95.22674528 281.91774699 95.23564246 C277.09244501 95.24002403 272.26714414 95.24539112 267.44184303 95.25063133 C251.40620877 95.26764305 235.37057519 95.28213835 219.33493328 95.28938007 C215.1729145 95.29129003 211.01089572 95.29321035 206.84887695 95.29516602 C205.29716752 95.29589163 205.29716752 95.29589163 203.71411041 95.2966319 C186.94738404 95.30493645 170.18072892 95.3302808 153.41403367 95.36274669 C136.20833947 95.39579167 119.00268152 95.41382646 101.79695541 95.41702431 C92.13314859 95.41919164 82.46944572 95.42797293 72.80566978 95.45348549 C64.5775956 95.4751574 56.3496506 95.4832602 48.12155112 95.47351871 C43.92230841 95.46896397 39.72333244 95.47092809 35.52412605 95.49028015 C31.68045066 95.50784108 27.83723797 95.50697217 23.99355815 95.49138286 C22.60256217 95.48899599 21.21153475 95.49338609 19.820587 95.50521151 C6.83063629 95.60881396 6.83063629 95.60881396 2 91 C0.37576863 87.75153725 0.81959228 84.1744388 0.79467773 80.60302734 C0.78477814 79.73466751 0.77487854 78.86630768 0.76467896 77.97163391 C0.73301842 75.09309645 0.70828855 72.21454247 0.68359375 69.3359375 C0.66302815 67.34338953 0.64203179 65.35084595 0.62062073 63.35830688 C0.56535933 58.10745808 0.51596801 52.85656964 0.46777344 47.60565186 C0.41758809 42.25008608 0.36188656 36.89457804 0.30664062 31.5390625 C0.1990093 21.02609096 0.09757539 10.51306934 0 0 Z " fill="#CAFDC5" transform="translate(330,577)"/>
<path d="M0 0 C11.05476192 3.01493507 17.79202437 16.71004999 23.13134766 25.95996094 C33.00689132 43.75656027 38.89889481 63.64623743 40 84 C40.05285156 84.84820312 40.10570312 85.69640625 40.16015625 86.5703125 C41.11074153 116.24510526 30.20437208 146.53323896 11 169 C10.67 168.01 10.34 167.02 10 166 C10.66 165.67 11.32 165.34 12 165 C12 164.01 12 163.02 12 162 C12.99 162 13.98 162 15 162 C14.67 161.01 14.34 160.02 14 159 C15.3125 156.8125 15.3125 156.8125 17 155 C17.66 155 18.32 155 19 155 C19.66 153.02 20.32 151.04 21 149 C21.66 149 22.32 149 23 149 C22.67 148.01 22.34 147.02 22 146 C22.66 146 23.32 146 24 146 C24.33 143.69 24.66 141.38 25 139 C25.66 139 26.32 139 27 139 C27.33 137.35 27.66 135.7 28 134 C28.66 134 29.32 134 30 134 C30.16435547 132.69675781 30.16435547 132.69675781 30.33203125 131.3671875 C31.67165268 121.63042685 31.67165268 121.63042685 33.5625 118 C35.55583078 113.84000533 35.55817597 109.88466111 35.7890625 105.31640625 C36 102 36 102 36.515625 98.609375 C37.05400303 94.5975903 37.14746501 90.72745729 37.125 86.6875 C37.12886719 85.97271484 37.13273438 85.25792969 37.13671875 84.52148438 C37.19815533 80.63288454 37.19815533 80.63288454 36 77 C35.68170842 74.98318883 35.39484831 72.96136232 35.125 70.9375 C34.41603728 66.08670242 33.35044854 61.79313795 31.6640625 57.2109375 C30.46918261 53.23269034 30.25004857 49.13011266 30 45 C29.34 45 28.68 45 28 45 C27.51801537 43.75108386 27.03954323 42.50081192 26.5625 41.25 C26.29566406 40.55390625 26.02882813 39.8578125 25.75390625 39.140625 C25.03853307 37.10940997 24.48634348 35.0964709 24 33 C23.34 33 22.68 33 22 33 C21.87625 32.236875 21.7525 31.47375 21.625 30.6875 C21.11897208 27.79732864 21.11897208 27.79732864 19 25 C19 24.34 19 23.68 19 23 C18.34 23 17.68 23 17 23 C17 22.01 17 21.02 17 20 C16.34 20 15.68 20 15 20 C13.88671875 18.4609375 13.88671875 18.4609375 12.6875 16.375 C9.73959735 11.4705248 6.83034609 7.22023072 2 4 C0.8125 1.875 0.8125 1.875 0 0 Z " fill="#EAEE90" transform="translate(770,355)"/>
<path d="M0 0 C3.28767112 6.28499578 3.16503911 12.24421067 3.04107666 19.2199707 C3.03541687 20.42943359 3.02975708 21.63889648 3.02392578 22.88500977 C3.00163779 26.72624241 2.9514526 30.56652269 2.90045166 34.4074707 C2.880377 37.02073843 2.86212793 39.63402086 2.84576416 42.24731445 C2.80179765 48.634355 2.73496024 55.02084479 2.65045166 61.4074707 C1.66045166 61.4074707 0.67045166 61.4074707 -0.34954834 61.4074707 C-0.35541458 60.67719666 -0.36128082 59.94692261 -0.36732483 59.19451904 C-0.42525684 52.30840797 -0.49733645 45.42257424 -0.58526325 38.53678513 C-0.62996862 34.99679597 -0.66922397 31.45692194 -0.69598389 27.91674805 C-0.72699673 23.84565139 -0.78178549 19.77517527 -0.83782959 15.7043457 C-0.84421951 14.43443787 -0.85060944 13.16453003 -0.85719299 11.85614014 C-0.87698715 10.6752179 -0.89678131 9.49429565 -0.91717529 8.27758789 C-0.92827835 7.23834167 -0.93938141 6.19909546 -0.95082092 5.12835693 C-1.40567978 2.0244339 -2.15602456 0.62551417 -4.34954834 -1.5925293 C-7.14595397 -2.13062506 -7.14595397 -2.13062506 -10.37689209 -1.94799805 C-12.25344482 -1.92092773 -12.25344482 -1.92092773 -14.16790771 -1.89331055 C-15.17373901 -1.86551514 -15.17373901 -1.86551514 -16.19989014 -1.8371582 C-19.77912373 -1.73918877 -23.35912268 -1.70690654 -26.93939209 -1.66674805 C-28.06938126 -1.65156631 -28.06938126 -1.65156631 -29.22219849 -1.63607788 C-38.27047538 -1.53332793 -47.30650757 -1.81049865 -56.34954834 -2.0925293 C-57.95623586 -2.14101448 -59.56292527 -2.18943722 -61.1696167 -2.23779297 C-64.89641705 -2.35134296 -68.62302402 -2.47022019 -72.34954834 -2.5925293 C-72.34954834 -2.9225293 -72.34954834 -3.2525293 -72.34954834 -3.5925293 C-63.83087954 -3.79292464 -55.31208284 -3.97662035 -46.79261494 -4.13911724 C-42.83650786 -4.21509686 -38.88069175 -4.29678319 -34.92498779 -4.39160156 C-31.10615885 -4.48292754 -27.28729748 -4.55914503 -23.46794701 -4.62497902 C-22.01222715 -4.65271026 -20.55659972 -4.68584701 -19.10112953 -4.72452354 C-17.05932606 -4.77784925 -15.01803654 -4.81178845 -12.97576904 -4.84130859 C-11.81438919 -4.86573532 -10.65300934 -4.89016205 -9.45643616 -4.91532898 C-5.32379607 -4.4859556 -2.69657567 -3.18208369 0 0 Z " fill="#B7DB8E" transform="translate(692.3495483398438,705.592529296875)"/>
<path d="M0 0 C0 0.66 0 1.32 0 2 C-2.21642742 1.50746057 -4.1690824 0.92485227 -6.25 0 C-8.68193229 -0.88433902 -10.52260432 -1.23611473 -13.0625 -1.5 C-17 -2 -17 -2 -18.9375 -2.99609375 C-21.35118634 -4.17093729 -23.26834564 -4.36920223 -25.9375 -4.5625 C-28.46140479 -4.7536458 -30.82134607 -4.95724521 -33.28515625 -5.546875 C-37.05144881 -6.17549361 -40.71044294 -5.92676489 -44.5 -5.6875 C-45.29591553 -5.64044922 -46.09183105 -5.59339844 -46.91186523 -5.54492188 C-52.72422942 -5.16619769 -58.42556206 -4.45441572 -64.16796875 -3.46484375 C-66.74258819 -3.04225104 -69.276448 -2.7764984 -71.875 -2.5625 C-74.95974437 -2.25963419 -76.54494817 -1.75671957 -79.5 -0.4375 C-83.8357119 1.34323882 -87.38522188 1.28253744 -92 1 C-92 0.67 -92 0.34 -92 0 C-91.04480469 -0.25394531 -90.08960938 -0.50789063 -89.10546875 -0.76953125 C-88.48486572 -0.93477295 -87.8642627 -1.10001465 -87.22485352 -1.27026367 C-85.85701263 -1.63431096 -84.48900883 -1.99774662 -83.12084961 -2.3605957 C-78.28403555 -3.64651777 -73.46575213 -4.98801686 -68.66015625 -6.38671875 C-46.83995438 -11.4172205 -20.29063641 -9.58452172 0 0 Z " fill="#F2F69D" transform="translate(735,329)"/>
<path d="M0 0 C0.66 0.33 1.32 0.66 2 1 C2.04633108 8.38003676 2.08187308 15.76004218 2.10362434 23.14019489 C2.11406363 26.56706693 2.12822532 29.9938395 2.15087891 33.4206543 C2.17675686 37.35985119 2.18647162 41.29900774 2.1953125 45.23828125 C2.20563507 46.46960281 2.21595764 47.70092438 2.22659302 48.96955872 C2.22674408 50.11051498 2.22689514 51.25147125 2.22705078 52.42700195 C2.231492 53.432939 2.23593323 54.43887604 2.24050903 55.47529602 C2 58 2 58 0 61 C-1.01998165 57.94005504 -1.12674355 55.86152343 -1.12939453 52.65820312 C-1.13254669 51.56697144 -1.13569885 50.47573975 -1.13894653 49.35144043 C-1.1369223 48.17327759 -1.13489807 46.99511475 -1.1328125 45.78125 C-1.13424759 43.96711609 -1.13424759 43.96711609 -1.13571167 42.11633301 C-1.13639262 39.55753528 -1.13454426 36.99873582 -1.13037109 34.43994141 C-1.12502169 30.51591117 -1.13031901 26.59199541 -1.13671875 22.66796875 C-1.13605795 20.18489558 -1.13477676 17.70182248 -1.1328125 15.21875 C-1.13483673 14.04058716 -1.13686096 12.86242432 -1.13894653 11.64855957 C-1.13579437 10.55732788 -1.13264221 9.46609619 -1.12939453 8.34179688 C-1.12859894 7.38043823 -1.12780334 6.41907959 -1.12698364 5.42858887 C-1 3 -1 3 0 0 Z " fill="#86D3AA" transform="translate(330,709)"/>
<path d="M0 0 C0.99 0 1.98 0 3 0 C2.05969535 2.82091394 1.29266861 4.71350583 -0.8515625 6.8125 C-4.03074947 10.04949037 -6.09126873 13.85967098 -8.4140625 17.734375 C-8.93742187 18.48203125 -9.46078125 19.2296875 -10 20 C-10.66 20 -11.32 20 -12 20 C-12.10957031 20.67546875 -12.21914062 21.3509375 -12.33203125 22.046875 C-12.49058594 22.93890625 -12.64914063 23.8309375 -12.8125 24.75 C-12.96332031 25.63171875 -13.11414063 26.5134375 -13.26953125 27.421875 C-14.06254381 30.22074285 -15.15531221 31.7806841 -17 34 C-20.35445193 39.59075322 -21.56461887 45.70875506 -23 52 C-23.99 52 -24.98 52 -26 52 C-21.58168442 33.42252426 -13.27742002 14.0772646 0 0 Z " fill="#99E8B8" transform="translate(244,362)"/>
<path d="M0 0 C0.66 0 1.32 0 2 0 C2 0.66 2 1.32 2 2 C3.65 2.33 5.3 2.66 7 3 C7 3.66 7 4.32 7 5 C7.62648438 5.13277344 8.25296875 5.26554688 8.8984375 5.40234375 C10.12433594 5.66724609 10.12433594 5.66724609 11.375 5.9375 C12.18710937 6.11152344 12.99921875 6.28554688 13.8359375 6.46484375 C16 7 16 7 18 8 C18 8.66 18 9.32 18 10 C23.74747982 11.48130923 29.48275868 12.93966847 35.3125 14.0625 C43.79904586 15.74085995 51.98960229 17.53001553 57.0625 25.0625 C57.99901973 27.9969285 58.18192331 29.2063631 57 32 C56.67 30.35 56.34 28.7 56 27 C55.34 27 54.68 27 54 27 C53.87625 26.236875 53.7525 25.47375 53.625 24.6875 C51.37231551 20.96190642 49.18267164 20.79280239 45.0859375 19.73046875 C44.06757813 19.48941406 43.04921875 19.24835937 42 19 C26.70361362 15.29018675 12.59738608 10.01746523 -1 2 C-0.67 1.34 -0.34 0.68 0 0 Z " fill="#97E5B5" transform="translate(275,550)"/>
<path d="M0 0 C0 3.61435885 -1.06294891 4.47140662 -3.50463867 6.97241211 C-4.01873291 7.47651611 -4.53282715 7.98062012 -5.0625 8.5 C-5.59399658 9.02537354 -6.12549316 9.55074707 -6.6730957 10.09204102 C-14.7913477 17.90610717 -25.3211052 27.0240869 -36 31 C-36.66 30.67 -37.32 30.34 -38 30 C-35.66656647 26.49984971 -33.83082186 25.59617578 -30 24 C-29.34 24.33 -28.68 24.66 -28 25 C-28 24.34 -28 23.68 -28 23 C-27.030625 22.54625 -26.06125 22.0925 -25.0625 21.625 C-21.92920418 20.34213779 -21.92920418 20.34213779 -21 18 C-20.01 18 -19.02 18 -18 18 C-18 16.68 -18 15.36 -18 14 C-17.48050781 13.76925781 -16.96101562 13.53851562 -16.42578125 13.30078125 C-11.74967188 11.11398703 -8.50305132 8.88175957 -5 5 C-3.33333333 3.33333333 -1.66666667 1.66666667 0 0 Z " fill="#E7F39D" transform="translate(778,525)"/>
<path d="M0 0 C0 0.33 0 0.66 0 1 C-12.50534141 2.99080396 -12.50534141 2.99080396 -17.875 3.4375 C-20.95974437 3.74036581 -22.54494817 4.24328043 -25.5 5.5625 C-29.8357119 7.34323882 -33.38522188 7.28253744 -38 7 C-38 6.67 -38 6.34 -38 6 C-37.04480469 5.74605469 -36.08960938 5.49210937 -35.10546875 5.23046875 C-34.48518799 5.06506592 -33.86490723 4.89966309 -33.22583008 4.72924805 C-31.85522588 4.36496841 -30.48395399 4.00319263 -29.11206055 3.64379883 C-26.0402944 2.83483458 -23.00257973 2.00082658 -19.9765625 1.03125 C-13.03772126 -1.16638887 -7.18142947 -1.04024197 0 0 Z M0 -1 C5.94 -1 11.88 -1 18 -1 C18 -0.67 18 -0.34 18 0 C12.06 0 6.12 0 0 0 C0 -0.33 0 -0.66 0 -1 Z " fill="#DAE989" transform="translate(681,323)"/>
<path d="M0 0 C2.475 0.495 2.475 0.495 5 1 C4.01 1.495 4.01 1.495 3 2 C3.33 4.31 3.66 6.62 4 9 C4.66 9 5.32 9 6 9 C5.67 10.32 5.34 11.64 5 13 C5.66 13.33 6.32 13.66 7 14 C8.41644354 18.09194801 9.26260116 21.66708088 9 26 C9.66 26 10.32 26 11 26 C11.33 27.32 11.66 28.64 12 30 C12.66 30 13.32 30 14 30 C13.67 31.32 13.34 32.64 13 34 C12.34 34 11.68 34 11 34 C0 8.75561798 0 8.75561798 0 0 Z " fill="#97EBBF" transform="translate(216,467)"/>
<path d="M0 0 C0.99 0.33 1.98 0.66 3 1 C2.52759949 4.48012082 2.0459514 7.95889854 1.5625 11.4375 C1.42779297 12.43072266 1.29308594 13.42394531 1.15429688 14.44726562 C0.95610352 15.86362305 0.95610352 15.86362305 0.75390625 17.30859375 C0.57323608 18.62041626 0.57323608 18.62041626 0.38891602 19.95874023 C0 22 0 22 -1 23 C-1.04487912 24.85105071 -1.04487912 24.85105071 -0.87890625 27.03515625 C-0.83056641 27.84404297 -0.78222656 28.65292969 -0.73242188 29.48632812 C-0.67634766 30.33646484 -0.62027344 31.18660156 -0.5625 32.0625 C-0.51029297 32.91650391 -0.45808594 33.77050781 -0.40429688 34.65039062 C-0.27421239 36.76721995 -0.13770029 38.88365244 0 41 C-0.495 39.515 -0.495 39.515 -1 38 C-1.66 38 -2.32 38 -3 38 C-3.33160857 24.95162792 -3.36548923 12.68068263 0 0 Z " fill="#9CECC1" transform="translate(217,418)"/>
<path d="M0 0 C8.94710328 2.41813602 16.64347051 7.50593169 23.9375 13.0625 C24.48092041 13.47371094 25.02434082 13.88492187 25.58422852 14.30859375 C28.89250437 16.89629076 31.50482263 19.6270012 34 23 C33.443125 22.71125 32.88625 22.4225 32.3125 22.125 C29.91505355 20.9586747 27.48403061 19.9660119 25 19 C25 18.01 25 17.02 25 16 C24.46375 15.7525 23.9275 15.505 23.375 15.25 C21 14 21 14 18.0625 12 C15.16365014 9.96077062 15.16365014 9.96077062 12.3125 8.9375 C9.8665237 7.94588799 8.8335196 6.8335196 7 5 C4.89667109 4.28552357 4.89667109 4.28552357 3 4 C3 3.34 3 2.68 3 2 C2.01 2 1.02 2 0 2 C0 1.34 0 0.68 0 0 Z " fill="#EFF395" transform="translate(736,330)"/>
<path d="M0 0 C0.495 0.99 0.495 0.99 1 2 C-10.43070096 7.69113289 -22.48910383 11.49782077 -35 14 C-36.33496448 14.32673956 -37.66877156 14.6583573 -39 15 C-37.6875 13.5 -37.6875 13.5 -36 12 C-35.01 12 -34.02 12 -33 12 C-33 11.34 -33 10.68 -33 10 C-31.4221875 9.7834375 -31.4221875 9.7834375 -29.8125 9.5625 C-26.83970789 9.12389133 -23.94065112 8.60230204 -21 8 C-17.66666667 7.33333333 -14.33333333 6.66666667 -11 6 C-11 5.34 -11 4.68 -11 4 C-7.37 2.68 -3.74 1.36 0 0 Z " fill="#ECF5AA" transform="translate(737,556)"/>
<path d="M0 0 C4.1915071 3.81515699 6.82008376 7.71772985 9.5 12.6875 C10.08418701 13.74662598 10.08418701 13.74662598 10.68017578 14.82714844 C13.23054178 19.48138035 15.66386637 24.18419098 17.9296875 28.984375 C19.09262164 31.17442616 20.4669102 33.05516609 22 35 C17.13435085 32.93578521 14.75362983 29.38299659 12 25 C10.75 21.625 10.75 21.625 10 19 C9.34 18.34 8.68 17.68 8 17 C7.30287225 15.34017204 6.60792877 13.67935322 5.9296875 12.01171875 C4.56374919 9.0560119 2.79034573 6.40497339 0.98828125 3.69921875 C0 2 0 2 0 0 Z " fill="#E4F19F" transform="translate(620,294)"/>
<path d="M0 0 C0.66 0 1.32 0 2 0 C2 0.66 2 1.32 2 2 C3.65 2.33 5.3 2.66 7 3 C7 3.66 7 4.32 7 5 C7.62648438 5.13277344 8.25296875 5.26554688 8.8984375 5.40234375 C10.12433594 5.66724609 10.12433594 5.66724609 11.375 5.9375 C12.18710937 6.11152344 12.99921875 6.28554688 13.8359375 6.46484375 C16 7 16 7 18 8 C18 8.66 18 9.32 18 10 C19.08667969 10.29003906 19.08667969 10.29003906 20.1953125 10.5859375 C25.18045615 11.92860286 30.12594691 13.28749486 35 15 C35 15.33 35 15.66 35 16 C29.0200134 15.48321103 24.18392645 14.18203114 18.6875 11.8125 C17.95345947 11.50368896 17.21941895 11.19487793 16.46313477 10.87670898 C10.43150844 8.29267015 4.65413662 5.33386457 -1 2 C-0.67 1.34 -0.34 0.68 0 0 Z " fill="#9CE9C1" transform="translate(275,550)"/>
<path d="M0 0 C0.66 0.33 1.32 0.66 2 1 C2.33333333 3 2.66666667 5 3 7 C3.66 7.33 4.32 7.66 5 8 C5.350625 8.763125 5.70125 9.52625 6.0625 10.3125 C8.87915091 14.21946739 12.58459099 15.34306454 17 17 C17 17.66 17 18.32 17 19 C9.52039361 17.37178636 5.25769323 14.38050912 1 8 C-0.5 4.625 -0.5 4.625 -1 2 C-0.67 1.34 -0.34 0.68 0 0 Z " fill="#98E9C0" transform="translate(331,768)"/>
<path d="M0 0 C6.73238907 1.1754965 12.73434611 3.30537641 19 6 C19 6.66 19 7.32 19 8 C16.78357258 7.50746057 14.8309176 6.92485227 12.75 6 C10.27623376 5.10044864 8.45954654 4.79444648 5.875 4.5625 C2 4 2 4 0 2.4375 C-0.33 1.963125 -0.66 1.48875 -1 1 C-0.67 0.67 -0.34 0.34 0 0 Z " fill="#E3EA8E" transform="translate(716,323)"/>
<path d="M0 0 C7.27735891 4.43741397 12.6880858 10.40034902 18 17 C17.67 17.66 17.34 18.32 17 19 C11.36448598 14.61682243 11.36448598 14.61682243 9.375 11.25 C8.20917705 8.82116262 8.20917705 8.82116262 5.8125 8.1875 C5.214375 8.125625 4.61625 8.06375 4 8 C3.896875 7.38125 3.79375 6.7625 3.6875 6.125 C3.12474627 3.63473516 3.12474627 3.63473516 0 2 C0 1.34 0 0.68 0 0 Z " fill="#DFEC9F" transform="translate(600,272)"/>
<path d="M0 0 C0.99 0 1.98 0 3 0 C3.268125 0.598125 3.53625 1.19625 3.8125 1.8125 C4.8462874 4.01877425 4.8462874 4.01877425 6.5 5.3125 C8.76352255 7.85896287 9.2014695 10.74445256 10 14 C5.40783094 9.93265026 2.7832093 5.43614072 0 0 Z " fill="#99EBC1" transform="translate(231,507)"/>
<path d="M0 0 C2.0625 0.4375 2.0625 0.4375 4 1 C-0.4291821 4.14329052 -4.7878998 4.97436311 -10 6 C-11.33532981 6.32524328 -12.66937152 6.65602801 -14 7 C-12.6875 5.5 -12.6875 5.5 -11 4 C-10.01 4 -9.02 4 -8 4 C-8 3.34 -8 2.68 -8 2 C-6.2984375 1.7834375 -6.2984375 1.7834375 -4.5625 1.5625 C-1.19222799 1.38828522 -1.19222799 1.38828522 0 0 Z " fill="#DCEF9D" transform="translate(712,564)"/>
<path d="M0 0 C0.66 0 1.32 0 2 0 C1.29445766 5.92655567 -0.35702073 11.02030349 -5 15 C-5.66 14.67 -6.32 14.34 -7 14 C-5.625 11.5 -5.625 11.5 -4 9 C-3.34 9 -2.68 9 -2 9 C-2 7.68 -2 6.36 -2 5 C-1.34 5 -0.68 5 0 5 C0 3.35 0 1.7 0 0 Z " fill="#D0EDA5" transform="translate(692,767)"/>
<path d="M0 0 C0.33 1.32 0.66 2.64 1 4 C1.66 4 2.32 4 3 4 C3.2475 4.639375 3.495 5.27875 3.75 5.9375 C4.81562433 8.18741541 4.81562433 8.18741541 7.125 8.75 C7.74375 8.8325 8.3625 8.915 9 9 C9 9.66 9 10.32 9 11 C5.47224511 10.69762101 3.96191135 9.97019149 1.125 7.75 C-1 5 -1 5 -0.8125 2.1875 C-0.544375 1.465625 -0.27625 0.74375 0 0 Z " fill="#9AEABE" transform="translate(332,661)"/>
<path d="M0 0 C-1.32258472 0.68774405 -2.65986503 1.34711373 -4 2 C-5.051875 2.53625 -6.10375 3.0725 -7.1875 3.625 C-11.41082476 5.45204702 -15.47515057 5.2770316 -20 5 C-20 4.67 -20 4.34 -20 4 C-17.60612843 3.32550034 -15.21030779 2.66023359 -12.8125 2 C-12.13896484 1.80921875 -11.46542969 1.6184375 -10.77148438 1.421875 C-7.09444844 0.4174164 -3.8149818 -0.23704741 0 0 Z " fill="#EDF59F" transform="translate(663,325)"/>
<path d="M0 0 C0.66 0.33 1.32 0.66 2 1 C0.02 4.96 -1.96 8.92 -4 13 C-4.66 11.68 -5.32 10.36 -6 9 C-4.625 5.25 -4.625 5.25 -3 2 C-2.34 2 -1.68 2 -1 2 C-0.67 1.34 -0.34 0.68 0 0 Z " fill="#92E5B2" transform="translate(229,388)"/>
<path d="M0 0 C2.375 0.3125 2.375 0.3125 5 1 C5.66 1.99 6.32 2.98 7 4 C7.99 4.33 8.98 4.66 10 5 C10 5.66 10 6.32 10 7 C11.32 7.66 12.64 8.32 14 9 C13.01 9.495 13.01 9.495 12 10 C9.99708788 8.52464063 7.99763223 7.04497707 6 5.5625 C5.42765625 5.14162109 4.8553125 4.72074219 4.265625 4.28710938 C2.82546081 3.21555864 1.41048004 2.11033324 0 1 C0 0.67 0 0.34 0 0 Z " fill="#99E5BF" transform="translate(259,540)"/>
<path d="M0 0 C4.41889613 1.35021826 6.34345343 3.26115668 9 7 C6.23723823 6.47731534 3.6739124 5.89130413 1 5 C0.67 3.35 0.34 1.7 0 0 Z " fill="#D7EC98" transform="translate(591,265)"/>
<path d="M0 0 C-1.10699901 3.21029714 -2.01603825 4.00968977 -5 5.8125 C-5.99 6.204375 -6.98 6.59625 -8 7 C-8.66 6.67 -9.32 6.34 -10 6 C-8.71283353 4.99421411 -7.42011342 3.99553202 -6.125 3 C-5.40570313 2.443125 -4.68640625 1.88625 -3.9453125 1.3125 C-2 0 -2 0 0 0 Z " fill="#A5F0BE" transform="translate(272,339)"/>
<path d="M0 0 C0 0.33 0 0.66 0 1 C-2.64 1.33 -5.28 1.66 -8 2 C-8 1.34 -8 0.68 -8 0 C-9.98 0 -11.96 0 -14 0 C-14 -0.33 -14 -0.66 -14 -1 C-8.65998179 -2.33500455 -5.16044765 -1.512545 0 0 Z " fill="#D2EE9A" transform="translate(549,244)"/>
<path d="M0 0 C0.33 0 0.66 0 1 0 C1.59332061 4.37573952 2.13827236 8.57528444 2 13 C1.67 12.01 1.34 11.02 1 10 C0.34 10 -0.32 10 -1 10 C-0.67 6.7 -0.34 3.4 0 0 Z " fill="#91E8B5" transform="translate(215,446)"/>
<path d="M0 0 C1 2 1 2 0.0625 5.125 C-0.288125 6.07375 -0.63875 7.0225 -1 8 C-1.66 8 -2.32 8 -3 8 C-3.66 9.32 -4.32 10.64 -5 12 C-4.52389341 7.00088076 -2.96837781 4.02167317 0 0 Z " fill="#A2F1C4" transform="translate(232,380)"/>
<path d="M0 0 C0 0.66 0 1.32 0 2 C-1.32 2 -2.64 2 -4 2 C-4.33 2.66 -4.66 3.32 -5 4 C-5.99 2.68 -6.98 1.36 -8 0 C-4.94736336 -0.98120464 -3.05263664 -0.98120464 0 0 Z " fill="#9EE3AB" transform="translate(315,323)"/>
<path d="M0 0 C0.33 0.66 0.66 1.32 1 2 C-0.42913847 2.72505558 -1.86870658 3.42958435 -3.3125 4.125 C-4.11300781 4.51945313 -4.91351562 4.91390625 -5.73828125 5.3203125 C-6.48464844 5.54460938 -7.23101563 5.76890625 -8 6 C-8.99 5.34 -9.98 4.68 -11 4 C-7.37 2.68 -3.74 1.36 0 0 Z " fill="#DEEF9A" transform="translate(737,556)"/>
<path d="M0 0 C0.66 1.32 1.32 2.64 2 4 C2.66 4 3.32 4 4 4 C3.67 5.32 3.34 6.64 3 8 C2.34 8 1.68 8 1 8 C-1.125 3.375 -1.125 3.375 0 0 Z " fill="#8EE2B4" transform="translate(226,493)"/>
<path d="M0 0 C4.05281712 1.22527029 7.44360764 2.69880494 11 5 C9 6 9 6 5.875 5.0625 C4.92625 4.711875 3.9775 4.36125 3 4 C3 3.34 3 2.68 3 2 C2.01 2 1.02 2 0 2 C0 1.34 0 0.68 0 0 Z " fill="#F5F89B" transform="translate(736,330)"/>
<path d="M0 0 C1.46067199 0.45082469 2.91848032 0.91093537 4.375 1.375 C5.18710937 1.63023437 5.99921875 1.88546875 6.8359375 2.1484375 C9 3 9 3 11 5 C9.54052295 4.93993922 8.08220728 4.8511311 6.625 4.75 C5.81289063 4.70359375 5.00078125 4.6571875 4.1640625 4.609375 C2 4 2 4 0.7109375 1.953125 C0.47632813 1.30859375 0.24171875 0.6640625 0 0 Z " fill="#E2F4A4" transform="translate(560,248)"/>
<path d="M0 0 C-3.07692746 2.6815279 -5.19734663 3.42087807 -9.25 3.6875 C-10.14203125 3.75324219 -11.0340625 3.81898438 -11.953125 3.88671875 C-12.62859375 3.92410156 -13.3040625 3.96148437 -14 4 C-10.28835785 0.28835785 -5.09745779 -0.30893684 0 0 Z " fill="#DAF6B2" transform="translate(483,243)"/>
<path d="M0 0 C0.66 0.33 1.32 0.66 2 1 C1.25 5.75 1.25 5.75 -1 8 C-1.33 6.35 -1.66 4.7 -2 3 C-1.34 2.67 -0.68 2.34 0 2 C0 1.34 0 0.68 0 0 Z " fill="#DEE78C" transform="translate(797,492)"/>
<path d="M0 0 C4.3177458 0.50797009 8.03302114 1.19682779 12 3 C12 3.66 12 4.32 12 5 C9.15449988 4.33989524 6.47674001 3.48275034 3.75 2.4375 C3.04359375 2.16808594 2.3371875 1.89867187 1.609375 1.62109375 C1.07828125 1.41613281 0.5471875 1.21117187 0 1 C0 0.67 0 0.34 0 0 Z " fill="#F4F89C" transform="translate(723,326)"/>
<path d="M0 0 C1.65 0 3.3 0 5 0 C3.35 1.65 1.7 3.3 0 5 C-0.66 4.67 -1.32 4.34 -2 4 C-1.34 2.68 -0.68 1.36 0 0 Z " fill="#E6F299" transform="translate(763,537)"/>
<path d="M0 0 C4.67692308 1.47692308 4.67692308 1.47692308 6.3125 4.125 C6.539375 4.74375 6.76625 5.3625 7 6 C4.625 5.8125 4.625 5.8125 2 5 C0.6875 2.4375 0.6875 2.4375 0 0 Z " fill="#EFF493" transform="translate(770,355)"/>
<path d="M0 0 C-2.5654594 2.5654594 -4.47686668 2.54046087 -8 3 C-7.67 2.01 -7.34 1.02 -7 0 C-4.3333581 -1.33332095 -2.83319697 -0.67102033 0 0 Z " fill="#97E0A6" transform="translate(298,328)"/>
</svg>
